inDegrees=yes
name=ik_OwnShooting_orientations
DataType=double
version=3
OpenSimVersion=4.3-2021-08-27-4bc7ad9
endheader
time	pelvis_tilt	pelvis_list	pelvis_rotation	pelvis_tx	pelvis_ty	pelvis_tz	hip_flexion_r	hip_adduction_r	hip_rotation_r	knee_angle_r	knee_angle_r_beta	ankle_angle_r	subtalar_angle_r	mtp_angle_r	hip_flexion_l	hip_adduction_l	hip_rotation_l	knee_angle_l	knee_angle_l_beta	ankle_angle_l	subtalar_angle_l	mtp_angle_l	lumbar_extension	lumbar_bending	lumbar_rotation	arm_flex_r	arm_add_r	arm_rot_r	elbow_flex_r	pro_sup_r	wrist_flex_r	wrist_dev_r	arm_flex_l	arm_add_l	arm_rot_l	elbow_flex_l	pro_sup_l	wrist_flex_l	wrist_dev_l
8.109999999999999	-8.534557121190067	-12.96677380554271	-97.51574026528617	0	0.9399999999999999	0	39.53878164465026	-10.54831648159784	0	58.17821117072224	1.015401337849648	-5.198258851113769	0	0	39.53878164465026	-10.54831648159784	0	58.17821117072224	1.015401337849648	-5.198258851113769	0	0	-0.0002378614218660059	-0.008664104917989921	-0.005230651937430223	0.002485476612762677	0.004146261656636219	0.006654291799974745	76.98288172035757	46.92214558014863	0	0	0	-8.92840181503445	0	76.98288172035757	46.92214558014863	0	0
8.119999999999999	-8.724055533724437	-12.83503743656667	-97.73202748734327	0	0.9399999999999999	0	39.53934232750397	-10.54812287004226	0	58.17835864807849	1.015403911815087	-5.198167732447573	0	0	39.53934232750397	-10.54812287004226	0	58.17835864807849	1.015403911815087	-5.198167732447573	0	0	-0.001146470647117875	-0.009704996511183096	-0.008372558411401497	0.00312608274875962	0.01052676784103479	0.008961178666602858	76.98267907541343	46.92160683322576	0	0	0	-8.928722315684901	0	76.98267907541343	46.92160683322576	0	0
8.130000000000001	-8.557512497073171	-12.65768661253533	-98.13358387488573	0	0.9399999999999999	0	39.5398966659252	-10.54793061256654	0	58.17850394282123	1.015406447686733	-5.198077174497012	0	0	39.5398966659252	-10.54793061256654	0	58.17850394282123	1.015406447686733	-5.198077174497012	0	0	-0.003627148401621569	-0.005965673062647941	-0.009396806031684754	0.008693125809268853	0.001770613014287422	0.01914392758947175	76.98247873021555	46.9210722646534	0	0	0	-8.929038399471546	0	76.98247873021555	46.9210722646534	0	0
8.140000000000001	-8.834751695461238	-12.70289216081611	-97.92101489936813	0	0.9399999999999999	0	39.54051513830174	-10.5477158186854	0	58.17866583959035	1.015409273318403	-5.197975980098977	0	0	39.54051513830174	-10.5477158186854	0	58.17866583959035	1.015409273318403	-5.197975980098977	0	0	-0.001266194649784833	0.000407276839856889	-0.004648676582915087	-0.0036993720400047	0.01195433212903734	-0.008092058268504263	76.98225520867078	46.92047516111032	0	0	0	-8.92939074160055	0	76.98225520867078	46.92047516111032	0	0
8.15	-8.888125631904668	-12.69907769885002	-97.93761438443113	0	0.9399999999999999	0	39.57453175015948	-10.53563884925786	0	58.18750205379261	1.015563494349644	-5.192258404522593	0	0	39.57453175015948	-10.53563884925786	0	58.18750205379261	1.015563494349644	-5.192258404522593	0	0	0.001484825143786747	0.009127172192684921	0.002767453573819172	0.001162225465841088	-0.009409944030096011	0.005059506903456855	76.96996364425736	46.88704805315096	0	0	0	-8.948588093825183	0	76.96996364425736	46.88704805315096	0	0
8.16	-8.649304450973265	-12.76960127542715	-97.88720932062297	0	0.9399999999999999	0	39.57509347279019	-10.53544756946123	0	58.18764972576898	1.015566071711844	-5.192168986675261	0	0	39.57509347279019	-10.53544756946123	0	58.18764972576898	1.015566071711844	-5.192168986675261	0	0	0.0002345179878817597	0.0106412644094298	0.005265522999898199	-0.001444979357929307	-0.01104223450960625	-0.002414246225232705	76.96976060938331	46.88651345714322	0	0	0	-8.948909770237442	0	76.96976060938331	46.88651345714322	0	0
8.17	-8.319612786609101	-12.80514279967612	-97.65836002289322	0	0.9399999999999999	0	39.57561179045261	-10.53527190409189	0	58.18778645697557	1.015568458121589	-5.192086953585405	0	0	39.57561179045261	-10.53527190409189	0	58.18778645697557	1.015568458121589	-5.192086953585405	0	0	-0.001468057987320361	0.01434445055514488	0.01120105996587357	0.0003216274258050669	-0.01770133287358016	-0.01046271308840508	76.96957325678083	46.88602206165594	0	0	0	-8.949207334084754	0	76.96957325678083	46.88602206165594	0	0
8.18	-8.091369162265467	-12.83996397924749	-97.39322512234094	0	0.9399999999999999	0	39.57622832618266	-10.53506265646585	0	58.18794882811391	1.015571292032564	-5.191989226947045	0	0	39.57622832618266	-10.53506265646585	0	58.18794882811391	1.015571292032564	-5.191989226947045	0	0	4.960652963276082e-05	0.009916252614344151	0.008579065137758378	0.001281062634994115	-0.01384924485967083	-0.01070736570292143	76.96935040502031	46.88543682163661	0	0	0	-8.949560884893927	0	76.96935040502031	46.88543682163661	0	0
8.19	-8.026712336321216	-13.07192979003643	-97.11355738795061	0	0.9399999999999999	0	39.57675238229989	-10.53488451387324	0	58.18808671722761	1.0155736986516	-5.191905993264262	0	0	39.57675238229989	-10.53488451387324	0	58.18808671722761	1.0155736986516	-5.191905993264262	0	0	0.003676397185520803	0.01399127251970991	0.01210095737625318	-0.008015258929206546	-0.009433316349722528	-0.01231419424057106	76.96916098250162	46.88493874669451	0	0	0	-8.949861207837806	0	76.96916098250162	46.88493874669451	0	0
8.199999999999999	-7.993360298779291	-13.25155431998889	-97.20271629516519	0	0.9399999999999999	0	39.57742368494317	-10.53465547299318	0	58.18826278172981	1.01557677155686	-5.191798909002992	0	0	39.57742368494317	-10.53465547299318	0	58.18826278172981	1.01557677155686	-5.191798909002992	0	0	0.001066844530553161	0.001465237673181133	-0.0001001491484675384	-0.007242072786222531	-0.002808946766560102	-6.09335791743394e-05	76.9689183441571	46.88429875659171	0	0	0	-8.950245045202909	0	76.9689183441571	46.88429875659171	0	0
8.210000000000001	-8.117161075300256	-13.24456760035383	-97.41346253270974	0	0.9399999999999999	0	39.57774989890549	-10.53454603228593	0	58.18834948831158	1.015578284872195	-5.191747913352231	0	0	39.57774989890549	-10.53454603228593	0	58.18834948831158	1.015578284872195	-5.191747913352231	0	0	0.002780595318106707	-0.01355522994358321	-0.0147078106280134	-0.002577637610773475	0.002991994594608746	0.004970130726316231	76.96880042090019	46.88399203569329	0	0	0	-8.950433361187184	0	76.96880042090019	46.88399203569329	0	0
8.220000000000001	-8.326843155293432	-13.10879080581705	-97.70156286897391	0	0.9399999999999999	0	39.57829713204899	-10.53436057152928	0	58.18849372994585	1.015580802363631	-5.191661329807136	0	0	39.57829713204899	-10.53436057152928	0	58.18849372994585	1.015580802363631	-5.191661329807136	0	0	0.000906297419108558	-0.01315481593628835	-0.01182498265828747	0.002540637991962974	0.01252234084110443	0.0125351072859023	76.96860261687564	46.88347316904486	0	0	0	-8.950747394703582	0	76.96860261687564	46.88347316904486	0	0
8.23	-8.556918493042581	-12.95081348626574	-97.9695411774118	0	0.9399999999999999	0	39.5788634232478	-10.53416855750859	0	58.18864290455855	1.015583405951783	-5.191571684224518	0	0	39.5788634232478	-10.53416855750859	0	58.18864290455855	1.015583405951783	-5.191571684224518	0	0	-0.0008372612013349564	-0.01253874284441972	-0.01123524022016355	0.003472007759597996	0.01410710175539658	0.0122818697087296	76.96839792501325	46.88293599701183	0	0	0	-8.951072236067979	0	76.96839792501325	46.88293599701183	0	0
8.24	-8.807584292191997	-12.86862469783195	-98.11018619274917	0	0.9399999999999999	0	39.57930596609075	-10.53401907910535	0	58.18875984612902	1.01558544696722	-5.191501949231807	0	0	39.57930596609075	-10.53401907910535	0	58.18875984612902	1.01558544696722	-5.191501949231807	0	0	0.001940332567657216	-0.0181643600483726	-0.01237782150322577	0.004002030008987875	0.01371069466146281	0.01034384726303325	76.96823795844435	46.88251754016896	0	0	0	-8.951326664541277	0	76.96823795844435	46.88251754016896	0	0
8.25	-9.211496032303746	-13.0177576644446	-98.06066507541443	0	0.9399999999999999	0	39.57999076238728	-10.5337855477428	0	58.18893936853053	1.015588580224208	-5.191392805478134	0	0	39.57999076238728	-10.5337855477428	0	58.18893936853053	1.015588580224208	-5.191392805478134	0	0	0.003520722674436135	-0.01114301726241925	-0.006070424259656516	-0.005917326303895661	0.01269493126350449	0.002724644130277149	76.96799044262093	46.88186486066633	0	0	0	-8.951718153985473	0	76.96799044262093	46.88186486066633	0	0
8.26	-9.035462470548307	-12.95481409073168	-98.208415715171	0	0.9399999999999999	0	39.58061239319428	-10.53357362858666	0	58.18910234833416	1.015591424758395	-5.191293774521406	0	0	39.58061239319428	-10.53357362858666	0	58.18910234833416	1.015591424758395	-5.191293774521406	0	0	0.0009734695350058644	-0.004246257219420646	3.596185062806574e-05	0.004146563245358728	-0.006492591073471353	0.007582332170455647	76.96776575713162	46.88127253250793	0	0	0	-8.952073570976925	0	76.96776575713162	46.88127253250793	0	0
8.27	-8.67888302397855	-12.98190191251704	-97.98896341346767	0	0.9399999999999999	0	39.5814107459702	-10.5333018920148	0	58.18931186477921	1.015595081510199	-5.191166841879923	0	0	39.5814107459702	-10.5333018920148	0	58.18931186477921	1.015595081510199	-5.191166841879923	0	0	-0.001353348971326549	-0.001093830674489877	0.001115686713356325	0.0004000344688810658	-0.0124103488847506	-0.008786850545446843	76.96747719316754	46.88051276344707	0	0	0	-8.952530367631139	0	76.96747719316754	46.88051276344707	0	0
8.279999999999999	-8.231105896174777	-13.08851351430715	-97.8758063716627	0	0.9399999999999999	0	39.5819159732609	-10.53313068026642	0	58.18944491313301	1.015597403642037	-5.191086937307841	0	0	39.5819159732609	-10.53313068026642	0	58.18944491313301	1.015597403642037	-5.191086937307841	0	0	-0.001140929288589107	0.01683886128064036	0.01327710097456413	-0.001845046800688334	-0.02115473537041149	-0.006602872103385862	76.96729457299593	46.88003368209527	0	0	0	-8.952820168650879	0	76.96729457299593	46.88003368209527	0	0
8.289999999999999	-8.05273743624714	-13.23391506725565	-97.47551852453401	0	0.9399999999999999	0	39.58246148509885	-10.53294588975557	0	58.18958858701601	1.015599911224344	-5.191000707692068	0	0	39.58246148509885	-10.53294588975557	0	58.18958858701601	1.015599911224344	-5.191000707692068	0	0	-0.0008202893351835237	0.01787790768482988	0.01243432469056668	-0.004320342740351067	-0.01741125503216727	-0.01823682557643999	76.96709739106151	46.87951655261794	0	0	0	-8.953133114063705	0	76.96709739106151	46.87951655261794	0	0
